# xmcd
#
# Track frame offsets:
#	150
#	16154
#	30293
#	46220
#	65360
#	84255
#	101499
#	117578
#
# Disc length: 1608 seconds
#
# Revision: 0
# Processed by: cddbd v1.5.2PL0 Copyright (c) Steve Scherf et al.
# Submitted via: EasyCDDAExtractor 11.9.9.666
#
DISCID=54064608
DTITLE=Ron McManaman - Under The Blues Sky
DYEAR=2008
DGENRE=Rock/Blues
TTITLE0=He's The Pretender
TTITLE1=What If a Heart Had a Brain
TTITLE2=Gamblin' Man
TTITLE3=Sitting Under the Blues Sky
TTITLE4=Forever Love
TTITLE5=Lonesome Heart
TTITLE6=Ain't Gonna Change My Heart
TTITLE7=Ain't Two Ways to the Middle
EXTD=
EXTT0=
EXTT1=
EXTT2=
EXTT3=
EXTT4=
EXTT5=
EXTT6=
EXTT7=
PLAYORDER=
